<?xml version="1.0" encoding="UTF-8" standalone="no"?>
<!-- Created with Inkscape (http://www.inkscape.org/) -->
<svg xmlns:inkscape="http://www.inkscape.org/namespaces/inkscape" xmlns:rdf="http://www.w3.org/1999/02/22-rdf-syntax-ns#" xmlns="http://www.w3.org/2000/svg" xmlns:xlink="http://www.w3.org/1999/xlink" xmlns:ns1="http://sozi.baierouge.fr" xmlns:cc="http://creativecommons.org/ns#" xmlns:sodipodi="http://sodipodi.sourceforge.net/DTD/sodipodi-0.dtd" xmlns:dc="http://purl.org/dc/elements/1.1/" id="svg2" xml:space="preserve" viewBox="0 0 177.2 66.8" version="1.1" inkscape:version="0.91 r13725">
  <g id="g10" transform="matrix(1.25 0 0 -1.25 0 66.8)">
    <g id="g12">
      <path id="path14" style="fill-rule:evenodd;fill:#514b44" d="m74.039 33.6c1.094 0.078 2.695 0.227 4.801 0.442 0.508 0.05 1.066 0.117 1.68 0.199h0.042l0.079-0.039h0.039c1.175-0.11 2.629-0.121 4.359-0.043 0.723-0.024 1.867-0.039 3.441-0.039 1.387-0.055 2.493-0.282 3.321-0.68 0.398-0.188 0.613-0.32 0.64-0.398 0.028-0.082-0.132-0.227-0.48-0.442-0.32-0.187-0.773-0.387-1.359-0.601-0.723-0.239-1.188-0.414-1.403-0.52 0.75-0.133 1.789-0.133 3.121 0 0.719 0.082 1.758 0.199 3.121 0.359 0.614 0.055 1.532 0.122 2.758 0.204 1.094 0.078 2.016 0.199 2.762 0.359 0.027 0.344 0.039 0.586 0.039 0.719 3.895 0.586 6.266 0.933 7.121 1.039 2.641 0.293 4.598 0.203 5.879-0.278 0.348-0.136 0.559-0.308 0.641-0.519 0.132-0.32 0.265-0.535 0.398-0.641l0.96-0.043c1.254 0 2.719 0.094 4.398 0.282 1.868 0.187 4.602 0.652 8.204 1.402l1.277 0.316c0.082-0.023 0.148-0.039 0.199-0.039h0.043c0.078-0.027 0.172-0.054 0.281-0.078 0.184-0.027 0.41-0.066 0.68-0.121h0.039c0.16-0.027 0.32-0.039 0.481-0.039 0.265 0 0.535 0.027 0.8 0.078 0.078 0 0.16 0.016 0.239 0.039 0.027 0 0.054-0.012 0.082-0.039 0.16-0.078 0.359-0.133 0.601-0.16-0.082 0-0.16-0.012-0.242-0.039h-0.199c-0.535-0.078-1-0.16-1.403-0.238-0.316-0.11-0.625-0.215-0.918-0.321-1.121-0.32-2-0.547-2.64-0.679-0.32-0.082-1.106-0.204-2.36-0.364-0.988-0.133-1.773-0.293-2.359-0.476-0.32-0.11-0.762-0.309-1.32-0.602-0.266-0.16-0.508-0.281-0.719-0.359-0.16 0.211-0.426 0.371-0.801 0.48l-1.801-1.082c0-0.027 0.016-0.054 0.04-0.078-0.184-0.027-0.383-0.055-0.598-0.082-1.492-0.184-2.359-0.305-2.602-0.359-0.531-0.078-1.359-0.293-2.48-0.641-1.039-0.293-1.867-0.48-2.481-0.559-1.652-0.214-3.039-0.453-4.16-0.718l-0.758-0.203c-0.132-0.028-0.253-0.051-0.359-0.079-0.055-0.027-0.121-0.054-0.203-0.082h-0.117c-0.641-0.078-1.149-0.16-1.52-0.238 4.051 1.067 7.571 2.254 10.559 3.559-0.16 0.269-0.442 0.414-0.84 0.441-0.481-0.055-0.84-0.082-1.082-0.082-0.934-0.105-1.637-0.172-2.117-0.199-0.828-0.078-1.535-0.078-2.121 0 0.933 0.055 1.507 0.094 1.718 0.121 0.75 0.105 1.254 0.32 1.52 0.641-0.719 0.027-1.707-0.094-2.957-0.36-1.762-0.347-2.762-0.535-3-0.562-0.856-0.051-1.496-0.106-1.922-0.16-0.801-0.051-1.453-0.133-1.957-0.239 0.023-0.242 0.289-0.547 0.797-0.922-0.184-0.238-0.399-0.386-0.641-0.437-0.078-0.027-0.371-0.066-0.879-0.121-1.308-0.16-3.265-0.32-5.879-0.481l-5.882-0.398c-1.438-0.106-2.239-0.149-2.399-0.121 4.348 0.64 7.067 1.082 8.16 1.32 0.879 0.215 1.414 0.371 1.598 0.481-0.105 0.027-0.773-0.016-2-0.121-3.438-0.321-6.012-0.532-7.719-0.641-3.226-0.266-4.984-0.414-5.281-0.438-2.078-0.109-3.852-0.082-5.32 0.079 0.32 0.16 0.816 0.292 1.484 0.402 0.398 0.051 0.93 0.133 1.598 0.238 0.613 0.106 1.613 0.281 3 0.52 1.199 0.242 2.176 0.547 2.918 0.922-0.239 0.132-0.598 0.183-1.078 0.16-0.536-0.082-0.907-0.121-1.122-0.121 0.293 0.027 1.2 0.254 2.723 0.679 0.238 0.055 0.664 0.149 1.277 0.282 0.536 0.132 0.934 0.304 1.2 0.519-0.266 0.106-0.879 0.133-1.84 0.078-2.399-0.105-4.227-0.238-5.477-0.398-0.773-0.082-1.789-0.254-3.043-0.52-1.492-0.32-2.519-0.519-3.078-0.601-0.508-0.188-1.043-0.227-1.601-0.121l-1.52-0.161c-3.332-0.425-5.746-0.718-7.238-0.878-1.36-0.161-2.547-0.454-3.563-0.879-0.906-0.266-1.586-0.52-2.039-0.762-0.851-0.426-1.133-0.945-0.84-1.559-0.425-0.293-1.8-0.254-4.121 0.121-0.132-0.214-0.277-0.347-0.437-0.402-0.11-0.027-0.336-0.039-0.68-0.039-1.707 0.027-3.746 0.145-6.121 0.359-2.719 0.293-4.762 0.508-6.121 0.641-5.332 0.586-9.387 1.078-12.16 1.48-1.735 0.051-2.961-0.16-3.68-0.64 0.055-0.16 0.68-0.414 1.879-0.762-3.117 0.32-6.293 0.762-9.52 1.32l0.122 0.122c0.054 0.054 0.054 0.148 0 0.281-0.028 0.16-0.028 0.265 0 0.32 0.214 0.426 0.679 0.719 1.398 0.879l1.203 0.281c2.934 0.531 5.531 0.707 7.797 0.52 1.176-0.082 2.922-0.199 5.242-0.36 2.028-0.136 3.785-0.32 5.281-0.562 0.211-0.024 1.012-0.199 2.399-0.52 0.055-0.027 0.105-0.039 0.16-0.039l0.719-0.601c-0.055 0.136-0.121 0.293-0.199 0.48 0.668-0.133 1.226-0.187 1.679-0.16 0.481 0.027 0.879 0.094 1.199 0.199 0.215 0.082 0.575 0.254 1.082 0.524 0.133 0.078 0.36 0.144 0.68 0.199 0.055 0 1.653-0.106 4.801-0.32 2.027-0.161 3.066 0.148 3.117 0.918-0.078 0.082-0.332 0.214-0.758 0.402 2.774-0.242 4.907-0.348 6.399-0.32 2.375 0.027 4.441 0.32 6.199 0.879 1.789 0.558 3.402 0.949 4.84 1.16l3.402 0.441h0.481c0.105 0.024 0.211 0.039 0.32 0.039h-0.004z" inkscape:connector-curvature="0"/>
      <path id="path16" style="fill-rule:evenodd;fill:#b3aa9e" d="m121.4 30.401c0 0.211-0.023 0.387-0.078 0.519-0.027 0.106-0.082 0.215-0.16 0.321 0.215 0.078 0.453 0.199 0.719 0.359 0.559 0.293 1 0.492 1.32 0.602 0.586 0.183 1.375 0.343 2.36 0.476 1.253 0.16 2.039 0.282 2.359 0.364 0.641 0.132 1.52 0.359 2.641 0.679 0.16-0.027 0.332-0.054 0.519-0.082 0.453-0.078 0.895-0.078 1.32 0 1.122 0.188 2.774 0.469 4.961 0.84 0.317 0.055 1.094 0.094 2.317 0.121 0.828 0.027 1.523 0.094 2.082 0.199-1.039-0.238-1.824-0.425-2.36-0.558-1.066-0.266-1.945-0.442-2.64-0.52-0.371-0.054-1.254-0.121-2.641-0.203-1.066-0.078-1.945-0.199-2.64-0.359-1.571-0.504-2.758-0.852-3.559-1.039-0.293-0.055-1.082-0.172-2.359-0.36-0.989-0.133-1.774-0.293-2.36-0.48-0.32-0.106-0.761-0.32-1.32-0.641-0.188-0.078-0.344-0.16-0.481-0.238zm-2.679-0.242c-0.531-0.184-0.852-0.332-0.957-0.438 0.316-0.586 0.504-1.281 0.558-2.082 0.028-0.16 0.039-0.531 0.039-1.121-0.105-0.906-0.238-1.984-0.398-3.238-0.133-1.094-0.27-3.586-0.402-7.481 0-0.718-0.051-1.214-0.161-1.48-0.105 0.933-0.371 2.254-0.796 3.961-0.454 1.785-0.735 3.121-0.84 4-0.137 1.121-0.203 3.398-0.203 6.84h-0.161c-0.531-0.082-1.359-0.309-2.476-0.68-1.043-0.32-1.867-0.52-2.484-0.602-2.504-0.343-4.399-0.746-5.68-1.199-0.774-0.347-1.465-0.652-2.078-0.922v1.243c0.613 0.242 1.304 0.519 2.078 0.839 0.078 0.028 0.144 0.039 0.203 0.039 0.078 0.028 0.144 0.055 0.199 0.082 0.106 0.028 0.227 0.051 0.36 0.079l0.757 0.203c1.121 0.265 2.508 0.504 4.161 0.718 0.613 0.079 1.441 0.266 2.48 0.559 1.121 0.348 1.949 0.563 2.48 0.641 0.243 0.054 1.11 0.175 2.602 0.359 0.211 0.027 0.414 0.055 0.598 0.082 0.054-0.109 0.093-0.242 0.121-0.402zm-18.56-6.481c0-0.133 0.012-0.25 0.039-0.359v-1.598c0.028-2.988 0-5.508-0.078-7.558-0.05-1.684-0.241-4.043-0.561-7.082-0.348-3.282-0.559-5.641-0.637-7.082-0.215 0.375-0.363 1.066-0.442 2.082-0.054 1.039-0.093 1.707-0.121 2-0.187 1.597-0.492 3.492-0.918 5.679-0.535 2.481-0.933 4.348-1.203 5.602-0.343 1.758-0.718 4.238-1.117 7.437 0 0.321-0.027 0.614-0.082 0.883-0.133 0.024-0.266 0.051-0.398 0.078-0.082 0-0.176 0.016-0.282 0.043-0.082-0.16-0.148-0.347-0.199-0.562-0.187-0.559-0.398-0.961-0.64-1.199-0.293 0.375-0.442 0.839-0.442 1.398-0.531-0.023-0.824-0.918-0.879-2.68 0-0.933 0.028-2.05 0.078-3.359-0.105-1.414-0.531-4.332-1.277-8.758-0.453-2.641-0.734-4.91-0.84-6.801 0.051 2.211 0.067 4.801 0.039 7.758-0.054 4.293-0.078 7.52-0.078 9.68-0.027 0.75-0.027 1.308 0 1.683 0 0.641 0.078 1.2 0.238 1.68 0.161 0.559 0.375 1.027 0.641 1.399-0.641 0.054-1.348 0.109-2.121 0.16-1.465 0-2.785 0.027-3.957 0.082v-1.242c-0.027-0.852-0.11-1.586-0.242-2.2-0.215-1.093-0.602-2.691-1.16-4.8-0.426-1.735-0.641-3.278-0.641-4.641-0.133 5.469-0.199 9.562-0.199 12.281l0.242 0.68c-0.91 0.055-1.684 0.109-2.32 0.16-3.735 0.32-6.961 0.469-9.68 0.441-0.934-0.027-2.094-0.121-3.484-0.281-1.543-0.187-2.704-0.32-3.477-0.398-1.84-0.16-3.149-0.282-3.922-0.364 0.238 0.508 0.52 0.961 0.84 1.364 0.961 0.051 1.988 0.133 3.082 0.238 0.398 0.027 1.559 0.133 3.477 0.32 1.414 0.133 2.574 0.215 3.484 0.239 3.41 0 6.637-0.133 9.68-0.399 1.839-0.133 4.597-0.199 8.277-0.199l2.922-0.121c1.144-0.051 2.094-0.133 2.84-0.238 1.492-0.188 3.199 0.05 5.121 0.718 0.05 0.028 0.117 0.055 0.199 0.078-0.027-0.64 0.039-1.386 0.199-2.242zm-43.762 0.121c0.188 0.453 0.414 0.801 0.68 1.039 0.11 0.11 0.227 0.204 0.363 0.282 0.637 0 1.348 0.027 2.118 0.082l-0.239-0.121c-0.16-0.161-0.242-0.426-0.242-0.801 0-0.184 0.016-0.426 0.043-0.719-0.508-1.094-1.176-2.215-2-3.359-0.027 0.558-0.16 1.332-0.402 2.32-0.106 0.48-0.199 0.906-0.278 1.281h-0.043v-0.004zm-26.277 2c0.051 0.055 0.106 0.106 0.16 0.161 0.184 0.187 0.504 0.441 0.957 0.761 0.11 0.106 0.188 0.199 0.242 0.278 0.508-0.028 1.266-0.106 2.282-0.239 1.066-0.16 1.879-0.242 2.437-0.242 0.961-0.051 2.348-0.09 4.16-0.117 1.602-0.055 2.973-0.199 4.121-0.441 1.442-0.321 3.215-0.532 5.321-0.641 0.984-0.051 2.371-0.106 4.16-0.16-0.242-0.426-0.359-1.094-0.359-2 0-0.559 0.023-1.332 0.078-2.321v-5.476c-0.106-1.149-0.215-2.574-0.321-4.281-0.238-2.563-0.652-4.586-1.238-6.082-0.215 1.332-0.293 3.148-0.242 5.441 0 0.664-0.094 1.918-0.277 3.758-0.188 1.601-0.243 2.855-0.161 3.762 0.133 1.359 0.2 3.347 0.2 5.957-0.719 0.027-1.336 0.054-1.84 0.082-2.106 0.105-3.879 0.332-5.321 0.679-1.175 0.293-2.546 0.453-4.121 0.481-1.812 0-3.199 0.015-4.16 0.043-0.558 0-1.371 0.078-2.437 0.238-1.121 0.16-1.934 0.254-2.442 0.281-0.398 0.028-0.8 0.051-1.199 0.078zm-19.723 4.321c1.735-0.426 3.227-0.758 4.481-1l1.242-0.239c3.438-0.613 7.078-1.109 10.918-1.48 0-0.586-0.078-1.426-0.238-2.52 0-0.961 0.027-1.773 0.078-2.441-0.16-0.375-0.348-0.801-0.559-1.281-0.293-1.227-0.453-1.852-0.48-1.879-0.078 1.199-0.145 2.094-0.199 2.68 0.027 0.828 0.039 1.492 0.039 2-0.028 0.988-0.2 1.601-0.52 1.839l-0.719-0.359c-0.027 0.348-0.093 0.641-0.203 0.879-3.304 0.402-6.426 0.883-9.359 1.441-1.918 0.375-4.414 0.973-7.481 1.801-3.57 0.984-5.972 1.625-7.199 1.918 1.016-0.211 2.36-0.32 4.039-0.32 0.375-0.024 1.43-0.266 3.16-0.719 1.227-0.293 2.227-0.398 3-0.32zm27 2.199c-1.519 0.055-2.613 0.133-3.277 0.242-1.043 0.133-2.082 0.227-3.121 0.277 0.055 0.028 0.105 0.067 0.16 0.122 0.238 0.105 0.52 0.132 0.84 0.082 0.398-0.028 0.68-0.028 0.84 0 0.265 0.05 0.441 0.16 0.519 0.32 0.055 0.078 0.149 0.265 0.282 0.558 0.16 0.239 0.492 0.454 1 0.641 0.48 0.184 0.8 0.414 0.961 0.68 0.132 0.187 0.226 0.504 0.277 0.961 0.055 0.449 0.094 0.769 0.121 0.957l0.641 4.281c0.238 1.199 0.414 2.094 0.519 2.68 0.133 0.906 0.215 1.718 0.238 2.441v-14.242zm8.641-1.277c-0.027 1.863 0.016 3.437 0.121 4.718 0.106 0.985 0.465 2.867 1.078 5.641 0.508 2.184 0.774 3.984 0.801 5.398v-2.281c-0.266-2.453-0.398-4.637-0.398-6.558v-3.801c0.027-0.719 0.171-1.414 0.437-2.078 0.027-0.082 0.055-0.149 0.082-0.2-0.348-0.16-0.613-0.281-0.801-0.363l-0.879-0.316c-0.16-0.055-0.308-0.11-0.441-0.16zm-3-0.403c-0.211 0.055-0.387 0.106-0.519 0.16l-0.04 0.039c-0.347 0.215-0.679 0.414-1 0.602-0.48 0.266-1.066 0.465-1.761 0.602-0.133 0.343-0.266 0.664-0.399 0.957 0 0.722 0.149 1.136 0.442 1.242 0.398 0.133 0.824-0.16 1.277-0.879 0.375-0.617 1.039-1.524 2-2.723zm35.801 3.403c-2.106-0.215-3.707-0.364-4.801-0.442 0.055 0.16 0.109 0.348 0.16 0.559 0.16 0.75 0.36 1.203 0.602 1.359 0.133 0.082 0.414 0.082 0.84 0 0.398-0.078 0.668-0.066 0.8 0.043 0.211 0.16 0.36 0.481 0.438 0.957 0.027 0.563 0.055 0.934 0.082 1.121 0.453 3.52 0.68 5.961 0.68 7.321-0.028 1.335-0.051 2.335-0.079 3 0 1.199 0.09 2.214 0.278 3.039-0.051-4.664 0.055-8.332 0.32-11l0.68-5.957zm8.922 0.878-2-0.242c-0.27 0-0.563-0.023-0.883-0.078h-0.359l-0.282-0.039c-0.293 0-0.586-0.016-0.879-0.043 0.321 0.27 0.707 0.481 1.161 0.641 0.238 0.082 0.48 0.16 0.718 0.242 0.106 0.078 0.188 0.332 0.239 0.758 0.054 0.215 0.07 0.562 0.043 1.043-0.028 0.449-0.028 0.797 0 1.039 0.507-0.348 1.16-1.293 1.957-2.84 0.082-0.16 0.175-0.32 0.281-0.481h0.004zm23.398 0.36c-0.265-0.028-0.547-0.051-0.84-0.078l-0.961-0.082c-0.398-0.028-0.824-0.067-1.281-0.121 0.027 0.109 0.067 0.226 0.121 0.363 0.239 0.691 0.492 2 0.762 3.918 0.398 2.48 0.598 5.64 0.598 9.48 0.105 2.055 0.175 3.614 0.199 4.68 0-0.719 0.066-1.707 0.203-2.961l0.598-7.32c0.082-0.774 0.214-1.918 0.402-3.438 0.16-1.359 0.227-2.508 0.199-3.441v-1zm2.559 0.16c0.961 1.121 1.535 1.746 1.719 1.879 0.136-0.293 0.414-0.934 0.839-1.918h-0.156l-2.281 0.039h-0.121zm7.402-0.48c-0.453 0.054-0.961 0.105-1.519 0.16 0.16 0.425 0.293 0.945 0.398 1.558 0.105 1.524 0.227 2.508 0.359 2.961 0.133-0.851 0.332-2.144 0.602-3.879 0.051-0.16 0.105-0.425 0.16-0.8zm8.758-0.282h-0.117c-0.215 0.055-0.43 0.082-0.641 0.082l-0.199 0.039h-0.242c0.105 0.293 0.148 0.707 0.121 1.243-0.055 0.878-0.082 1.425-0.082 1.636 0.082 4.617 0.347 8.684 0.801 12.203-0.11-2.668-0.161-4.601-0.161-5.8 0.028-2.188 0.215-4.067 0.559-5.641 0.293-1.387 0.453-2.68 0.48-3.879-0.105 0.024-0.199 0.051-0.277 0.078h-0.043c-0.051 0-0.117 0.016-0.199 0.039z" inkscape:connector-curvature="0"/>
      <path id="path18" style="fill-rule:evenodd;fill:#45403a" d="m140.84 35.561-0.039-0.043c-1.602-0.371-2.762-0.637-3.481-0.797l-0.558-0.082c-0.297-0.054-1.082-0.133-2.364-0.238-0.398-0.027-0.73-0.055-1-0.082h-0.078c-0.242 0.027-0.441 0.082-0.601 0.16-0.028 0.027-0.051 0.039-0.078 0.039 1.117 0.188 2.691 0.453 4.718 0.801h0.161l0.359 0.043c0.746 0.105 1.734 0.183 2.961 0.238v-0.039zm-22.121-5.402c0.082 0.054 0.16 0.093 0.242 0.121h1.039c-0.16-0.051-0.281-0.238-0.359-0.559-0.082-0.293-0.121-0.722-0.121-1.281-0.028-0.695-0.012-1.52 0.042-2.48-0.054-0.532-0.082-1.399-0.082-2.598-0.105-1.094-0.414-1.91-0.918-2.442-0.136 0.106-0.226 0.332-0.281 0.68-0.054 0.348-0.066 0.801-0.043 1.36 0.082 1.281 0.121 2.082 0.121 2.402v1.156c0 0.59-0.011 0.961-0.039 1.121-0.054 0.801-0.242 1.496-0.558 2.082 0.105 0.106 0.426 0.254 0.957 0.438zm-18.52-6.84c-0.027 0.109-0.039 0.226-0.039 0.359-0.027 0.16-0.039 0.348-0.039 0.563 0.024 0.801 0.039 1.386 0.039 1.758v0.281l0.602-0.559c0.449 0.16 0.73 0 0.84-0.48 0.078-0.266 0.089-0.653 0.039-1.16-0.133-1.309-0.508-1.801-1.121-1.481-0.079 0.051-0.145 0.16-0.2 0.32-0.054 0.106-0.093 0.239-0.121 0.399zm-84.078 5.562-1.242 0.239c-1.254 0.242-2.746 0.574-4.481 1-0.933 0.242-1.933 0.507-3 0.8-3.812 1.012-6.277 1.653-7.398 1.918 1.012-0.211 2.426-0.359 4.238-0.437 0.403-0.055 1.457-0.281 3.16-0.68 1.309-0.32 2.348-0.426 3.122-0.32 0.265 0.027 0.734 0.172 1.402 0.437 0.504 0.215 1.012 0.297 1.519 0.243 1.547-0.133 3.825-0.094 6.84 0.121 0.239 0.023 1.106 0.039 2.598 0.039 1.043 0.027 1.906 0.105 2.601 0.238 1.2 0.215 2.079 0.336 2.641 0.359 0.957 0.028 1.918 0.028 2.879 0 1.039-0.05 2.078-0.144 3.121-0.277 0.664-0.109 1.758-0.187 3.277-0.242h0.204v1.562c-0.028 0.907-0.055 1.598-0.082 2.079-0.028 0.855 0.015 1.519 0.121 2 0.214-0.399 0.414-1.106 0.597-2.122 0.242-0.718 0.602-1.664 1.082-2.839 0.133-0.293 0.266-0.614 0.399-0.957 0.695-0.137 1.281-0.336 1.761-0.602 0.321-0.188 0.653-0.387 1-0.602l0.04-0.039c0.132-0.054 0.308-0.105 0.519-0.16 0.106-0.027 0.242-0.054 0.402-0.078h0.118c0.242-0.027 0.8 0.066 1.679 0.277l0.364 0.082c0.078 0.028 0.16 0.051 0.238 0.079 0.055 0.027 0.121 0.043 0.199 0.043 0.133 0.05 0.281 0.105 0.441 0.16l0.879 0.316c0.188 0.082 0.453 0.203 0.801 0.363-0.027 0.051-0.055 0.118-0.082 0.2-0.266 0.664-0.41 1.359-0.437 2.078v3.801c0 1.921 0.132 4.105 0.398 6.558v0.082c0.106 0.852 0.375 3 0.801 6.442-0.028-0.321 0.027-1.043 0.16-2.161 0.078-0.722 0.16-1.789 0.238-3.203 0.082-1.25 0.203-2.316 0.364-3.199l1.437-7.398c0.266-1.282 0.402-2.016 0.402-2.2 0-0.082 0.012-0.148 0.039-0.203 0.375 0 0.786-0.023 1.239-0.078 0.613-0.055 1.508-0.148 2.679-0.281l4.761-0.199c0.481 0 0.961 0.066 1.442 0.199 0.265 0.109 0.718 0.266 1.359 0.48 1.305 0.348 2.945 0.575 4.918 0.68 1.148 0.027 2.828 0.055 5.043 0.082h0.316l-3.398-0.441c-1.442-0.215-3.051-0.602-4.84-1.16-1.762-0.559-3.828-0.852-6.199-0.879-1.496-0.028-3.629 0.078-6.403 0.32 0.43-0.188 0.68-0.32 0.762-0.402-0.055-0.774-1.094-1.079-3.121-0.918-3.144 0.214-4.746 0.32-4.801 0.32-0.316-0.055-0.543-0.121-0.679-0.199-0.504-0.27-0.864-0.442-1.079-0.524-0.32-0.105-0.718-0.172-1.199-0.199-0.453-0.027-1.015 0.027-1.679 0.16 0.078-0.187 0.144-0.344 0.199-0.48l-0.723 0.601c-0.051 0-0.105 0.012-0.156 0.039-1.387 0.321-2.188 0.496-2.402 0.52-1.493 0.242-3.254 0.426-5.282 0.562-2.316 0.161-4.066 0.278-5.238 0.36-2.266 0.187-4.867 0.011-7.801-0.52l-1.199-0.281c-0.719-0.16-1.188-0.453-1.398-0.879-0.028-0.055-0.028-0.16 0-0.32 0.05-0.133 0.05-0.227 0-0.281l-0.122-0.122-0.359 0.043zm105 6.079c1.305-0.106 2.211-0.172 2.719-0.2h0.121c0.348-0.027 1.332 0 2.961 0.078h0.117l1.399-0.039h0.484l0.199-0.039c0.211 0 0.426-0.027 0.641-0.082h0.117l-1.281-0.316c-3.598-0.75-6.332-1.215-8.2-1.402-1.679-0.188-3.144-0.282-4.398-0.282l-0.961 0.043c-0.133 0.106-0.266 0.321-0.398 0.641-0.082 0.211-0.293 0.383-0.641 0.519-1.281 0.481-3.242 0.571-5.879 0.278-0.855-0.106-3.23-0.453-7.121-1.039 0-0.133-0.016-0.375-0.039-0.719-0.75-0.16-1.668-0.281-2.762-0.359-1.226-0.082-2.148-0.149-2.761-0.204-1.36-0.16-2.399-0.277-3.118-0.359-1.332-0.133-2.375-0.133-3.121 0 0.215 0.106 0.68 0.281 1.403 0.52 0.586 0.214 1.039 0.414 1.359 0.601 0.348 0.215 0.504 0.36 0.48 0.442-0.027 0.078-0.242 0.21-0.64 0.398-0.828 0.398-1.934 0.625-3.321 0.68-1.574 0-2.718 0.015-3.441 0.039-1.73-0.078-3.184-0.067-4.359 0.043-0.051 0.023-0.094 0.039-0.118 0.039 0.958 0.105 1.891 0.199 2.797 0.277 0.293 0.027 0.586 0.043 0.883 0.043l0.281 0.039h0.36c0.32 0.051 0.613 0.078 0.879 0.078l2 0.242 3.961 0.36c0.16 0.027 0.332 0.039 0.519 0.039h0.16c2 0.109 3.735 0.133 5.2 0.082l2.48-0.199h0.082c2.984-0.375 5.359-0.469 7.117-0.282 0.266 0.028 0.535 0.051 0.801 0.079 0.453 0.054 0.879 0.093 1.281 0.121l0.961 0.082c0.289 0.023 0.571 0.05 0.84 0.078 0.449 0.027 0.863 0.055 1.238 0.082l1.282 0.078h0.16l2.281-0.039h0.156c0.188 0 0.375-0.016 0.563-0.039l1.84-0.16h0.238l0.32-0.043c0.106 0 0.227-0.012 0.36-0.039 0.558-0.055 1.066-0.106 1.519-0.16zm-66.042-10.282c0.137-0.211 0.227-0.492 0.281-0.84v-0.679c0-0.399-0.027-0.946-0.078-1.641 0-2.105-0.015-3.277-0.043-3.519-0.211-1.868-0.398-3.266-0.558-4.2-0.239 0.774-0.348 1.84-0.321 3.2 0 0.718 0.016 1.32 0.039 1.8-0.023 0.696-0.05 1.176-0.078 1.442-0.082 0.558-0.093 1.187-0.039 1.879 0.184 0.8 0.25 1.398 0.199 1.8l0.598 0.758zm-27.277 0.364c0.027 0.343 0.094 0.652 0.199 0.918 0.16 0.507 0.426 0.851 0.801 1.039l1.199-0.559c-0.215-0.188-0.387-0.387-0.52-0.602-0.082-0.105-0.148-0.211-0.199-0.32-0.027-0.023-0.187-0.398-0.48-1.117-0.055-0.16-0.176-0.508-0.36-1.039-0.187-0.453-0.386-0.707-0.601-0.762-0.133 0.879-0.145 1.692-0.039 2.442z" inkscape:connector-curvature="0"/>
      <path id="path20" style="fill-rule:evenodd;fill:#635b52" d="m137.32 34.721c0.719 0.16 1.879 0.426 3.481 0.797l0.039 0.043c0.348 0.051 0.652 0.106 0.922 0.16-1.867-0.48-3.348-0.816-4.442-1zm-16.16-3.48c0.078-0.106 0.133-0.215 0.16-0.321 0.051-0.132 0.078-0.308 0.078-0.519 0-0.242-0.023-0.535-0.078-0.883-0.082-0.504-0.215-1.719-0.398-3.637-0.215-2.132-0.602-4.882-1.16-8.242-0.801-4.558-1.27-7.304-1.403-8.238 0.055 1.226 0.067 2.746 0.039 4.559-0.023 2.054-0.039 3.585-0.039 4.601-0.027 0.984-0.05 1.719-0.082 2.199v0.84c0.055-0.348 0.149-0.574 0.282-0.68 0.507 0.532 0.816 1.348 0.921 2.442 0 1.199 0.028 2.066 0.079 2.598-0.051 0.96-0.067 1.785-0.039 2.48 0 0.559 0.039 0.988 0.121 1.281 0.078 0.321 0.199 0.504 0.359 0.559h-1.039c-0.082-0.028-0.16-0.067-0.242-0.121-0.028 0.16-0.067 0.293-0.121 0.402-0.024 0.024-0.039 0.051-0.039 0.078l1.8 1.082c0.375-0.109 0.641-0.269 0.801-0.48zm-62.039-7.68c-0.027 0.293-0.043 0.531-0.043 0.719 0 0.371 0.082 0.64 0.242 0.801l0.239 0.117c-0.774-0.051-1.481-0.078-2.118-0.078-0.136-0.078-0.253-0.172-0.363-0.282-0.266-0.238-0.492-0.586-0.68-1.039-0.132-0.293-0.253-0.625-0.359-1-0.211-0.773-0.332-1.558-0.359-2.359-0.028-1.441-0.028-3.641 0-6.602-0.028-0.906-0.227-2.117-0.602-3.636-0.051-0.297-0.172-0.817-0.359-1.563-0.16-0.664-0.36-1.133-0.598-1.398-0.293 1.734-0.441 4.437-0.441 8.121v5.476c-0.055 0.989-0.078 1.762-0.078 2.321 0 0.906 0.117 1.574 0.359 2-1.789 0.054-3.176 0.109-4.16 0.16-2.106 0.109-3.879 0.32-5.321 0.641-1.148 0.242-2.519 0.386-4.121 0.441-1.812 0.027-3.199 0.066-4.16 0.117-0.558 0-1.371 0.082-2.437 0.242-1.016 0.133-1.774 0.215-2.282 0.239-0.054-0.079-0.132-0.172-0.242-0.278-0.449-0.32-0.769-0.574-0.957-0.761-0.054-0.055-0.109-0.106-0.16-0.161-0.641-0.691-1.094-1.625-1.359-2.8-0.137-0.532-0.203-1.211-0.203-2.039 0-0.481 0.015-1.188 0.043-2.122v-7.117c-0.27 0.481-0.457 1.211-0.563 2.199-0.078 1.094-0.16 1.852-0.238 2.282l-0.801 5.238c-0.055 0.293-0.094 0.629-0.121 1-0.051 0.668-0.078 1.48-0.078 2.441 0.16 1.094 0.238 1.934 0.238 2.52-3.84 0.371-7.48 0.867-10.918 1.48l0.359-0.039c3.227-0.562 6.399-1 9.52-1.32-1.199 0.344-1.828 0.598-1.879 0.758 0.719 0.48 1.945 0.695 3.68 0.64 2.773-0.398 6.824-0.894 12.16-1.48 1.359-0.133 3.398-0.344 6.117-0.641 2.375-0.211 4.414-0.332 6.121-0.359 0.348 0 0.574 0.016 0.68 0.039 0.16 0.055 0.309 0.188 0.441 0.402 2.321-0.375 3.692-0.414 4.121-0.121-0.296 0.614-0.015 1.133 0.84 1.559 0.453 0.242 1.133 0.496 2.039 0.762 1.012 0.425 2.2 0.718 3.559 0.879 1.496 0.16 3.906 0.453 7.242 0.882l1.52 0.16c0.558-0.109 1.093-0.066 1.597 0.118 0.563 0.082 1.586 0.281 3.082 0.601 1.254 0.266 2.266 0.442 3.039 0.52 1.254 0.16 3.082 0.293 5.481 0.398 0.961 0.055 1.574 0.028 1.84-0.078-0.266-0.215-0.668-0.387-1.2-0.519-0.613-0.133-1.039-0.227-1.281-0.282-1.519-0.425-2.426-0.652-2.719-0.679 0.215 0 0.586 0.039 1.122 0.121 0.476 0.027 0.839-0.028 1.078-0.16-0.746-0.375-1.719-0.68-2.918-0.922-1.387-0.239-2.387-0.414-3-0.52-0.668-0.105-1.2-0.187-1.602-0.238-0.668-0.11-1.16-0.242-1.48-0.402 1.468-0.161 3.242-0.184 5.32-0.079 0.293 0.028 2.055 0.172 5.281 0.438 1.707 0.109 4.281 0.32 7.719 0.641 1.227 0.109 1.895 0.148 2 0.121-0.188-0.106-0.719-0.266-1.602-0.481-1.089-0.238-3.812-0.68-8.16-1.32 0.16-0.028 0.961 0.015 2.403 0.121l5.879 0.398c2.613 0.161 4.574 0.321 5.882 0.481 0.504 0.055 0.797 0.094 0.879 0.121 0.242 0.051 0.453 0.199 0.641 0.441-0.508 0.371-0.774 0.68-0.801 0.918 0.508 0.106 1.16 0.188 1.961 0.242 0.426 0.051 1.066 0.106 1.918 0.161 0.242 0.023 1.242 0.211 3 0.558 1.254 0.266 2.242 0.387 2.961 0.36-0.266-0.321-0.773-0.536-1.52-0.641-0.214-0.027-0.785-0.066-1.718-0.121 0.586-0.078 1.293-0.078 2.117 0 0.48 0.027 1.187 0.094 2.121 0.203 0.238 0 0.601 0.023 1.078 0.078 0.402-0.027 0.684-0.172 0.84-0.437-2.984-1.309-6.504-2.496-10.559-3.563 0.375 0.082 0.883 0.16 1.52 0.242h0.121c-0.059-0.004-0.125-0.015-0.199-0.043-0.774-0.32-1.469-0.597-2.082-0.839v-1.239c-0.028-0.426-0.067-0.922-0.118-1.48 0-1.336-0.335-3.508-1-6.52-0.453-2.027-0.722-3.719-0.8-5.082v4.723c0 1.598-0.016 2.558-0.039 2.879-0.028 0.293-0.161 1.187-0.403 2.679 0.055-0.16 0.121-0.265 0.2-0.32 0.613-0.32 0.988 0.176 1.121 1.481 0.05 0.507 0.039 0.894-0.039 1.16-0.11 0.48-0.387 0.64-0.84 0.48l-0.602 0.559v-0.278c0-0.375-0.015-0.96-0.039-1.761 0-0.215 0.012-0.399 0.039-0.559-0.16 0.852-0.226 1.598-0.199 2.238-0.082-0.027-0.149-0.05-0.199-0.078-1.922-0.668-3.629-0.91-5.121-0.722-0.746 0.109-1.696 0.187-2.84 0.242l-2.922 0.117c-3.68 0-6.438 0.07-8.277 0.203-3.043 0.266-6.27 0.399-9.68 0.399-0.91-0.028-2.067-0.106-3.484-0.239-1.918-0.187-3.079-0.293-3.477-0.32-1.094-0.109-2.121-0.187-3.082-0.242-0.32-0.399-0.602-0.852-0.84-1.36-0.586-1.171-0.906-2.332-0.961-3.48l0.043 2.961v0.16zm-4.043 1.117-0.598-0.758c0.051-0.402-0.015-1-0.199-1.8-0.054-0.692-0.043-1.321 0.039-1.879 0.028-0.266 0.055-0.746 0.078-1.442-0.023-0.48-0.039-1.082-0.039-1.8-0.027-1.36 0.082-2.426 0.321-3.2 0.16 0.934 0.347 2.332 0.558 4.2 0.028 0.242 0.043 1.414 0.043 3.519 0.051 0.695 0.078 1.242 0.078 1.641v0.679c-0.054 0.348-0.144 0.629-0.281 0.84zm-27.277 0.364c-0.106-0.75-0.094-1.563 0.039-2.442 0.215 0.051 0.414 0.305 0.601 0.762 0.184 0.531 0.305 0.879 0.36 1.039 0.293 0.719 0.453 1.094 0.48 1.117 0.051 0.109 0.117 0.215 0.199 0.32 0.133 0.215 0.305 0.414 0.52 0.602l-1.199 0.559c-0.375-0.188-0.641-0.532-0.801-1.039-0.105-0.266-0.172-0.575-0.199-0.918z" inkscape:connector-curvature="0"/>
    </g>
  </g>
<metadata><rdf:RDF><cc:Work><dc:format>image/svg+xml</dc:format><dc:type rdf:resource="http://purl.org/dc/dcmitype/StillImage"/><cc:license rdf:resource="http://creativecommons.org/licenses/publicdomain/"/><dc:publisher><cc:Agent rdf:about="http://openclipart.org/"><dc:title>Openclipart</dc:title></cc:Agent></dc:publisher></cc:Work><cc:License rdf:about="http://creativecommons.org/licenses/publicdomain/"><cc:permits rdf:resource="http://creativecommons.org/ns#Reproduction"/><cc:permits rdf:resource="http://creativecommons.org/ns#Distribution"/><cc:permits rdf:resource="http://creativecommons.org/ns#DerivativeWorks"/></cc:License></rdf:RDF></metadata></svg>
