<?xml version="1.0" encoding="UTF-8" standalone="no"?>
<!-- Created with Inkscape (http://www.inkscape.org/) -->

<svg
   xmlns:dc="http://purl.org/dc/elements/1.1/"
   xmlns:cc="http://creativecommons.org/ns#"
   xmlns:rdf="http://www.w3.org/1999/02/22-rdf-syntax-ns#"
   xmlns:svg="http://www.w3.org/2000/svg"
   xmlns="http://www.w3.org/2000/svg"
   xmlns:sodipodi="http://sodipodi.sourceforge.net/DTD/sodipodi-0.dtd"
   xmlns:inkscape="http://www.inkscape.org/namespaces/inkscape"
   width="543.53625"
   height="409.37329"
   id="svg3161"
   version="1.1"
   inkscape:version="0.48.0 r9654"
   sodipodi:docname="New document 5">
  <defs
     id="defs3163">
    <inkscape:path-effect
       effect="skeletal"
       id="path-effect3117"
       is_visible="true"
       pattern="m 3001.901,1412.8626 0,10 10,-5 z"
       copytype="single_stretched"
       prop_scale="1"
       scale_y_rel="false"
       spacing="0"
       normal_offset="0"
       tang_offset="0"
       prop_units="false"
       vertical_pattern="false"
       fuse_tolerance="0" />
    <inkscape:path-effect
       effect="skeletal"
       id="path-effect3109"
       is_visible="true"
       pattern="m 3001.901,1412.8626 0,10 10,-5 z"
       copytype="single_stretched"
       prop_scale="1"
       scale_y_rel="false"
       spacing="0"
       normal_offset="0"
       tang_offset="0"
       prop_units="false"
       vertical_pattern="false"
       fuse_tolerance="0" />
    <inkscape:path-effect
       effect="skeletal"
       id="path-effect3105"
       is_visible="true"
       pattern="m 3001.901,1412.8626 0,10 10,-5 z"
       copytype="single_stretched"
       prop_scale="1"
       scale_y_rel="false"
       spacing="0"
       normal_offset="0"
       tang_offset="0"
       prop_units="false"
       vertical_pattern="false"
       fuse_tolerance="0" />
    <inkscape:path-effect
       effect="skeletal"
       id="path-effect3101"
       is_visible="true"
       pattern="m 3001.901,1412.8626 0,10 10,-5 z"
       copytype="single_stretched"
       prop_scale="1"
       scale_y_rel="false"
       spacing="0"
       normal_offset="0"
       tang_offset="0"
       prop_units="false"
       vertical_pattern="false"
       fuse_tolerance="0" />
    <inkscape:path-effect
       effect="skeletal"
       id="path-effect3097"
       is_visible="true"
       pattern="m 3001.901,1412.8626 0,10 10,-5 z"
       copytype="single_stretched"
       prop_scale="1"
       scale_y_rel="false"
       spacing="0"
       normal_offset="0"
       tang_offset="0"
       prop_units="false"
       vertical_pattern="false"
       fuse_tolerance="0" />
    <inkscape:path-effect
       effect="skeletal"
       id="path-effect3093"
       is_visible="true"
       pattern="m 3001.901,1412.8626 0,10 10,-5 z"
       copytype="single_stretched"
       prop_scale="1"
       scale_y_rel="false"
       spacing="0"
       normal_offset="0"
       tang_offset="0"
       prop_units="false"
       vertical_pattern="false"
       fuse_tolerance="0" />
    <inkscape:path-effect
       effect="skeletal"
       id="path-effect3089"
       is_visible="true"
       pattern="m 3001.901,1412.8626 0,10 10,-5 z"
       copytype="single_stretched"
       prop_scale="1"
       scale_y_rel="false"
       spacing="0"
       normal_offset="0"
       tang_offset="0"
       prop_units="false"
       vertical_pattern="false"
       fuse_tolerance="0" />
    <inkscape:path-effect
       effect="skeletal"
       id="path-effect3085"
       is_visible="true"
       pattern="m 3001.901,1412.8626 0,10 10,-5 z"
       copytype="single_stretched"
       prop_scale="1"
       scale_y_rel="false"
       spacing="0"
       normal_offset="0"
       tang_offset="0"
       prop_units="false"
       vertical_pattern="false"
       fuse_tolerance="0" />
    <inkscape:path-effect
       effect="skeletal"
       id="path-effect3037"
       is_visible="true"
       pattern="m 4141.901,1775.7197 0,10 10,-5 z"
       copytype="single_stretched"
       prop_scale="1"
       scale_y_rel="false"
       spacing="0"
       normal_offset="0"
       tang_offset="0"
       prop_units="false"
       vertical_pattern="false"
       fuse_tolerance="0" />
    <inkscape:path-effect
       effect="skeletal"
       id="path-effect3033"
       is_visible="true"
       pattern="m 4141.901,1775.7197 0,10 10,-5 z"
       copytype="single_stretched"
       prop_scale="1"
       scale_y_rel="false"
       spacing="0"
       normal_offset="0"
       tang_offset="0"
       prop_units="false"
       vertical_pattern="false"
       fuse_tolerance="0" />
    <inkscape:path-effect
       effect="skeletal"
       id="path-effect3113"
       is_visible="true"
       pattern="m 3001.901,1412.8626 0,10 10,-5 z"
       copytype="single_stretched"
       prop_scale="1"
       scale_y_rel="false"
       spacing="0"
       normal_offset="0"
       tang_offset="0"
       prop_units="false"
       vertical_pattern="false"
       fuse_tolerance="0" />
  </defs>
  <sodipodi:namedview
     id="base"
     pagecolor="#ffffff"
     bordercolor="#666666"
     borderopacity="1.0"
     inkscape:pageopacity="0.0"
     inkscape:pageshadow="2"
     inkscape:zoom="0.35"
     inkscape:cx="311.93575"
     inkscape:cy="250.00544"
     inkscape:document-units="px"
     inkscape:current-layer="layer1"
     showgrid="false"
     fit-margin-top="0"
     fit-margin-left="0"
     fit-margin-right="0"
     fit-margin-bottom="0"
     inkscape:window-width="1680"
     inkscape:window-height="1002"
     inkscape:window-x="0"
     inkscape:window-y="22"
     inkscape:window-maximized="0" />
  <metadata
     id="metadata3166">
    <rdf:RDF>
      <cc:Work
         rdf:about="">
        <dc:format>image/svg+xml</dc:format>
        <dc:type
           rdf:resource="http://purl.org/dc/dcmitype/StillImage" />
        <dc:title></dc:title>
      </cc:Work>
    </rdf:RDF>
  </metadata>
  <g
     inkscape:label="Layer 1"
     inkscape:groupmode="layer"
     id="layer1"
     transform="translate(-63.064248,-372.99432)">
    <path
       sodipodi:type="arc"
       style="color:#000000;fill:#552200;fill-opacity:1;fill-rule:nonzero;stroke:none;stroke-width:12;marker:none;visibility:visible;display:inline;overflow:visible;enable-background:accumulate"
       id="path3081"
       sodipodi:cx="-3947.1428"
       sodipodi:cy="-819.06641"
       sodipodi:rx="372.85715"
       sodipodi:ry="94.285713"
       d="m -3574.2857,-819.06641 c 0,52.07257 -166.9338,94.28572 -372.8571,94.28572 -205.9233,0 -372.8572,-42.21315 -372.8572,-94.28572 0,-52.07256 166.9339,-94.28571 372.8572,-94.28571 205.9233,0 372.8571,42.21315 372.8571,94.28571 z"
       transform="matrix(0.59866732,0,0,0.59866732,2746.4085,1110.2205)" />
    <path
       style="color:#000000;fill:#000000;fill-opacity:1;fill-rule:nonzero;stroke:none;stroke-width:12;marker:none;visibility:visible;display:inline;overflow:visible;enable-background:accumulate"
       d="m 303.30006,571.93983 1.8406,9.82914 c 40.39476,-8.30319 81.41834,-13.98238 122.60982,-13.68369 26.6644,0.20113 53.45439,2.83995 78.97909,10.54584 0,10e-6 0,10e-6 10e-6,10e-6 15.70432,4.74493 30.97513,11.40672 44.1777,21.20942 6.9127,5.13649 13.4112,11.03598 18.06263,18.32117 -4.38867,-7.44644 -10.71845,-13.64231 -17.49821,-19.05385 -12.95811,-10.35026 -28.18299,-17.68259 -43.91865,-23.03963 0,0 0,0 -10e-6,0 -25.56911,-8.71103 -52.67811,-12.40399 -79.66343,-13.54483 0,0 -1e-5,0 -1e-5,0 -41.69074,-1.77449 -83.49265,2.4595 -124.58954,9.41642 z"
       id="path3111"
       inkscape:path-effect="#path-effect3113"
       inkscape:original-d="m 304.22036,576.8544 c 198.32088,-37.13754 254.55179,24.68919 264.74955,41.30732"
       inkscape:connector-curvature="0" />
    <rect
       style="color:#000000;fill:#aa4400;fill-opacity:1;fill-rule:nonzero;stroke:none;stroke-width:12;marker:none;visibility:visible;display:inline;overflow:visible;enable-background:accumulate"
       id="rect2991"
       width="168.00372"
       height="133.04398"
       x="150.5847"
       y="542.88135"
       ry="49.416336" />
    <g
       id="g3266"
       transform="matrix(1,0,0,0.6440752,0,199.00566)">
      <path
         inkscape:connector-curvature="0"
         inkscape:original-d="m 262.79438,558.29496 c -39.02587,-232.45847 -75.0032,-304.97157 220.65165,-282.22885 50.2325,3.86403 -34.41996,104.60633 -13.68386,150.52202"
         inkscape:path-effect="#path-effect3033"
         id="path3031"
         d="m 257.86339,559.12279 9.86198,-1.65566 c -4.6798,-26.63508 -9.70573,-53.1658 -14.45949,-79.71297 -3.88997,-21.73468 -7.647,-43.43543 -10.17717,-65.24221 0,-1e-5 0,-1e-5 0,-2e-5 -1.98305,-17.18021 -3.31579,-34.38414 -2.11122,-51.3967 0,0 0,-10e-6 0,-10e-6 0.4945,-7.00297 1.42848,-13.94436 3.08071,-20.68113 1.4904,-6.07311 3.5556,-11.9847 6.37118,-17.48884 0,-10e-6 1e-5,-2e-5 1e-5,-2e-5 2.69282,-5.27278 6.08544,-10.19367 10.09591,-14.54163 4.20192,-4.56445 9.10406,-8.52147 14.40901,-11.87566 6.03002,-3.81376 12.59083,-6.8521 19.3803,-9.3457 0,0 10e-6,0 10e-6,0 8.05236,-2.9552 16.4231,-5.12836 24.91238,-6.83179 22.34115,-4.48402 45.30989,-5.83107 68.27098,-6.23091 31.93507,-0.54992 63.91903,0.99177 95.85138,3.20323 2.61669,0.1895 5.19585,0.63737 7.50295,1.6597 1e-5,0 2e-5,1e-5 3e-5,1e-5 1.81445,0.80138 3.46847,1.97238 4.6747,3.48899 1.19774,1.47985 1.99031,3.31336 2.4597,5.23497 0.54568,2.24271 0.65166,4.61575 0.55287,6.99851 -0.25957,6.17005 -1.85949,12.27874 -3.6767,18.31128 -2.27286,7.52203 -5.04848,14.90503 -7.86931,22.27862 0,1e-5 -1e-5,2e-5 -1e-5,3e-5 -3.09763,8.09569 -6.2862,16.16771 -9.25989,24.32516 -2.94035,8.06509 -5.69372,16.21632 -7.83454,24.53761 -1.93203,7.50608 -3.40054,15.18225 -3.59372,22.93348 -0.16719,6.66129 0.67448,13.45906 3.45673,19.497 -2.69015,-6.07953 -3.41753,-12.85956 -3.15373,-19.48717 0.30838,-7.71416 1.8884,-15.32516 3.92475,-22.77508 2.25793,-8.25669 5.12553,-16.33553 8.18146,-24.33976 10e-6,-1e-5 10e-6,-2e-5 10e-6,-3e-5 3.09056,-8.09398 6.39815,-16.10816 9.62225,-24.16548 2.93553,-7.33479 5.8351,-14.70789 8.24753,-22.26964 1.93424,-6.04485 3.65624,-12.27907 4.04345,-18.73908 0.15159,-2.50657 0.0664,-5.07778 -0.49563,-7.60384 -0.48492,-2.18657 -1.38684,-4.32694 -2.79976,-6.15954 -1.45802,-1.86383 -3.38656,-3.29394 -5.49964,-4.25325 -10e-6,0 -2e-5,-10e-6 -3e-5,-10e-6 -2.64719,-1.19865 -5.49347,-1.75889 -8.29013,-1.9858 -31.93015,-2.70105 -63.9696,-4.73299 -96.08277,-4.67088 -23.07543,0.0401 -46.31479,1.05845 -69.18331,5.2716 -8.70194,1.60372 -17.36089,3.71653 -25.79145,6.65951 -10e-6,0 -2e-5,0 -3e-5,10e-6 -7.11361,2.48142 -14.07452,5.58611 -20.59143,9.55828 -10e-6,10e-6 -2e-5,10e-6 -3e-5,2e-5 -5.74303,3.50157 -11.10646,7.70571 -15.79341,12.63058 -4.46834,4.70361 -8.26558,10.02808 -11.29976,15.75632 -1e-5,1e-5 -1e-5,2e-5 -2e-5,3e-5 -3.1589,5.97227 -5.49765,12.32031 -7.18044,18.79045 -1.86491,7.16613 -2.97075,14.47431 -3.58948,21.76895 0,2e-5 0,3e-5 0,4e-5 -1.49613,17.67375 -0.42368,35.36533 1.34211,52.77384 0,10e-6 0,2e-5 1e-5,3e-5 2.23175,22.12922 5.68152,44.06119 9.25012,65.88586 4.35922,26.67426 8.98047,53.273 13.24058,79.8887 z"
         style="color:#000000;fill:#000000;fill-opacity:1;fill-rule:nonzero;stroke:none;stroke-width:12;marker:none;visibility:visible;display:inline;overflow:visible;enable-background:accumulate" />
      <path
         inkscape:connector-curvature="0"
         inkscape:original-d="m 199.50668,554.87406 c -5.75176,-65.29721 -19.93622,-129.07378 -32.49907,-193.28408 -11.4212,-58.37485 -23.22435,-93.74693 -94.076322,-70.12956 -34.888296,11.62941 56.302922,155.93912 46.182932,176.17923 -5.86466,11.72921 -26.227375,0 -39.341003,0"
         inkscape:path-effect="#path-effect3037"
         id="path3035"
         d="m 194.52597,555.31279 9.96142,-0.87746 c -6.36069,-65.49719 -21.14727,-129.49081 -34.25466,-193.47635 -2.67549,-13.1082 -5.48848,-26.37565 -10.0017,-39.22585 0,0 0,-1e-5 -1e-5,-1e-5 -3.46807,-10.00888 -8.25925,-20.07864 -16.09502,-27.84175 0,0 -1e-5,0 -1e-5,-10e-6 -3.54895,-3.48081 -7.71317,-6.3331 -12.2765,-8.33214 -5.03147,-2.18849 -10.40272,-3.33462 -15.75077,-3.71245 -1e-5,0 -2e-5,0 -3e-5,0 -15.12733,-1.04377 -29.906694,2.88763 -43.817222,7.69419 -2.400223,0.8169 -4.542853,2.34907 -6.064479,4.42638 -7e-6,1e-5 -1.4e-5,2e-5 -2.1e-5,3e-5 -1.580918,2.23246 -2.416182,4.77519 -2.792742,7.25301 -1e-6,1e-5 -3e-6,2e-5 -5e-6,3e-5 -0.494251,3.12095 -0.43848,6.23158 -0.152516,9.23588 0.347431,3.73085 1.036551,7.3886 1.877976,10.97299 2.095235,8.93309 5.094764,17.57523 8.316104,26.06763 3.753629,9.90251 7.891754,19.63599 12.13689,29.30503 4.355349,9.92068 8.843188,19.77274 13.279255,29.64188 4e-6,10e-6 8e-6,2e-5 1.2e-5,3e-5 4.028508,8.96284 8.034038,17.92823 11.738138,27.01529 2.86043,7.02134 5.63718,14.0791 7.50789,21.3912 0,10e-6 0,2e-5 0,3e-5 0.6429,2.5178 1.18711,5.05738 1.33057,7.62261 0.0535,0.96149 0.0501,1.92061 -0.0777,2.85826 -0.10392,0.75165 -0.27997,1.48747 -0.60365,2.1449 0,0 -10e-6,1e-5 -10e-6,2e-5 -0.62918,1.2838 -1.5396,2.43907 -2.6969,3.26351 -1.11194,0.79792 -2.43884,1.29346 -3.80635,1.56382 -3.28761,0.65155 -6.7309,0.16342 -10.08333,-0.46143 -3.874957,-0.7258 -7.694823,-1.76313 -11.550464,-2.64653 -3.576198,-0.82007 -7.209112,-1.58793 -10.876919,-1.55588 3.667807,0.032 7.272789,0.86232 10.832332,1.74296 3.834622,0.94948 7.635587,2.05334 11.518021,2.85154 3.35176,0.69224 6.83857,1.24314 10.26678,0.63818 1.43631,-0.25423 2.85136,-0.75801 4.07507,-1.59757 1.27152,-0.87835 2.27843,-2.10227 2.97581,-3.47157 10e-6,-10e-6 10e-6,-2e-5 2e-5,-3e-5 0.37919,-0.7483 0.59319,-1.55759 0.71411,-2.36142 0.15256,-1.00184 0.17583,-2.01204 0.13608,-3.00797 -0.10513,-2.65185 -0.61263,-5.26034 -1.22066,-7.81351 0,-10e-6 -1e-5,-2e-5 -1e-5,-3e-5 -1.76357,-7.42037 -4.43384,-14.58317 -7.17817,-21.6629 -3.55582,-9.17825 -7.4122,-18.23238 -11.28484,-27.26676 -4.265357,-9.95095 -8.578575,-19.87579 -12.751156,-29.85047 -4.067684,-9.72446 -8.019047,-19.48785 -11.571504,-29.38009 -3.049081,-8.49637 -5.858993,-17.05884 -7.740791,-25.79265 -0.753673,-3.50141 -1.355276,-7.01058 -1.6157,-10.51736 -0.204405,-2.83444 -0.220784,-5.63587 0.265228,-8.29164 0.397332,-2.08271 1.042572,-4.06579 2.202618,-5.55954 4e-6,0 9e-6,-10e-6 1.3e-5,-10e-6 1.008534,-1.36229 2.524023,-2.38555 4.17464,-2.91893 13.83309,-4.44133 28.128332,-8.04217 42.150742,-6.73541 4.89752,0.44834 9.71089,1.54843 14.06326,3.55494 3.94195,1.80322 7.54027,4.37028 10.59085,7.46543 0,10e-6 1e-5,2e-5 2e-5,2e-5 6.88437,6.90451 11.0366,16.31931 14.29984,25.97031 4.14475,12.43675 6.65004,25.46328 9.10667,38.58581 11.99506,64.31624 25.63274,128.35887 30.74348,193.09181 z"
         style="color:#000000;fill:#000000;fill-opacity:1;fill-rule:nonzero;stroke:none;stroke-width:12;marker:none;visibility:visible;display:inline;overflow:visible;enable-background:accumulate" />
    </g>
    <path
       sodipodi:type="arc"
       style="color:#000000;fill:#000000;fill-opacity:1;fill-rule:nonzero;stroke:none;stroke-width:12;marker:none;visibility:visible;display:inline;overflow:visible;enable-background:accumulate"
       id="path3077"
       sodipodi:cx="-4207.1431"
       sodipodi:cy="-794.7807"
       sodipodi:rx="35.714287"
       sodipodi:ry="41.42857"
       d="m -4171.4288,-794.7807 c 0,22.88037 -15.9898,41.42857 -35.7143,41.42857 -19.7244,0 -35.7143,-18.5482 -35.7143,-41.42857 0,-22.88037 15.9899,-41.42857 35.7143,-41.42857 19.7245,0 35.7143,18.5482 35.7143,41.42857 z"
       transform="matrix(0.59866732,0,0,0.59866732,2695.0942,1074.3004)" />
    <path
       transform="matrix(0.59866732,0,0,0.59866732,2792.5914,1074.3004)"
       d="m -4171.4288,-794.7807 c 0,22.88037 -15.9898,41.42857 -35.7143,41.42857 -19.7244,0 -35.7143,-18.5482 -35.7143,-41.42857 0,-22.88037 15.9899,-41.42857 35.7143,-41.42857 19.7245,0 35.7143,18.5482 35.7143,41.42857 z"
       sodipodi:ry="41.42857"
       sodipodi:rx="35.714287"
       sodipodi:cy="-794.7807"
       sodipodi:cx="-4207.1431"
       id="path3079"
       style="color:#000000;fill:#000000;fill-opacity:1;fill-rule:nonzero;stroke:none;stroke-width:12;marker:none;visibility:visible;display:inline;overflow:visible;enable-background:accumulate"
       sodipodi:type="arc" />
    <path
       style="color:#000000;fill:#000000;fill-opacity:1;fill-rule:nonzero;stroke:none;stroke-width:12;marker:none;visibility:visible;display:inline;overflow:visible;enable-background:accumulate"
       d="m 346.46388,656.1449 -9.9751,-0.70532 c -0.53878,14.82963 -2.42548,29.78588 -4.09554,44.86061 -0.66844,5.99797 -1.28729,12.07935 -1.48017,18.22824 -0.17011,5.16626 -0.012,10.45915 0.98382,15.68125 0.88124,4.63581 2.54402,9.18115 5.16284,13.17336 2.82294,4.25645 6.61301,7.68748 10.78822,10.33505 0,1e-5 0,1e-5 0,1e-5 5.45853,3.46161 11.46297,5.76261 17.51794,7.53949 8.43184,2.47931 17.06673,3.98772 25.71433,5.13668 -8.55279,-1.71777 -17.04565,-3.79019 -25.1718,-6.77938 -5.8346,-2.14983 -11.50009,-4.75831 -16.38569,-8.3522 0,0 0,0 -1e-5,0 -3.70885,-2.72996 -6.94391,-6.06605 -9.12628,-9.93507 -2.06083,-3.6046 -3.22546,-7.70373 -3.7559,-11.87803 -0.60279,-4.75437 -0.40089,-9.63694 0.0675,-14.55423 0,0 0,-10e-6 0,-10e-6 0.56678,-5.84876 1.56166,-11.69403 2.61249,-17.59417 2.65575,-14.86165 5.54877,-29.81394 7.14339,-45.15628 z"
       id="path3083"
       inkscape:path-effect="#path-effect3085"
       inkscape:original-d="M 341.47633,655.79224 C 336.61772,724.50597 310.58,756.97756 391.08022,770.39427"
       inkscape:connector-curvature="0" />
    <path
       style="color:#000000;fill:#000000;fill-opacity:1;fill-rule:nonzero;stroke:none;stroke-width:12;marker:none;visibility:visible;display:inline;overflow:visible;enable-background:accumulate"
       d="m 290.03056,664.33958 -10,0.0101 c 0.55659,13.33952 1.33867,26.45743 0.2342,39.39678 -0.35759,4.12654 -0.90383,8.16263 -2.04617,11.97629 0,0 0,0 0,0 -0.90564,3.02041 -2.18204,5.91135 -3.98836,8.40598 -1.73992,2.43733 -4.03319,4.55674 -6.59305,6.3682 0,0 0,10e-6 0,10e-6 -3.06575,2.16702 -6.51205,3.90938 -10.06526,5.50427 -10.46062,4.68472 -21.53082,8.21371 -32.40809,12.15684 11.16913,-3.0189 22.45954,-5.59732 33.48243,-9.45494 3.76426,-1.3147 7.52746,-2.84379 11.09312,-4.92359 0,0 0,0 0,0 3.00964,-1.75531 5.83458,-3.96683 8.19944,-6.71526 2.41438,-2.83757 4.23744,-6.10814 5.5573,-9.51376 0,-1e-5 10e-6,-1e-5 10e-6,-1e-5 1.64621,-4.23821 2.64942,-8.6346 3.37169,-12.96043 2.26438,-13.42954 2.63299,-27.0068 3.16274,-40.25048 z"
       id="path3087"
       inkscape:path-effect="#path-effect3089"
       inkscape:original-d="m 285.03056,664.34463 c 0.0699,69.23856 -3.97042,66.16195 -59.86673,83.81342"
       inkscape:connector-curvature="0" />
    <path
       style="color:#000000;fill:#000000;fill-opacity:1;fill-rule:nonzero;stroke:none;stroke-width:12;marker:none;visibility:visible;display:inline;overflow:visible;enable-background:accumulate"
       d="m 412.18394,653.05718 -4.577,8.89108 c 15.22172,7.20579 30.04044,15.14255 42.5954,25.94544 4.24266,3.64225 8.1892,7.62145 11.64468,11.99369 0,0 0,0 0,0 2.92134,3.69041 5.49846,7.68672 7.74095,11.88497 0,0 0,0 0,0 4.2324,7.9059 7.28216,16.59948 10.93641,25.0796 4.36427,10.13861 9.82223,19.80693 16.60545,28.41087 -6.16717,-9.05571 -10.87412,-18.98146 -14.47039,-29.24397 -3.01622,-8.61483 -5.46007,-17.51683 -9.28723,-26.09656 0,0 0,0 -10e-6,0 -2.03727,-4.55587 -4.46279,-8.96607 -7.30744,-13.13087 0,-10e-6 -10e-6,-10e-6 -10e-6,-10e-6 -3.36569,-4.92048 -7.26581,-9.45937 -11.49802,-13.63118 -12.46481,-12.26606 -27.34657,-21.73252 -42.38279,-30.10306 z"
       id="path3091"
       inkscape:path-effect="#path-effect3093"
       inkscape:original-d="m 409.89544,657.50272 c 78.65219,40.48897 56.4954,65.84328 87.23439,107.76011"
       inkscape:connector-curvature="0" />
    <path
       style="color:#000000;fill:#000000;fill-opacity:1;fill-rule:nonzero;stroke:none;stroke-width:12;marker:none;visibility:visible;display:inline;overflow:visible;enable-background:accumulate"
       d="m 363.47739,658.19986 -9.79248,2.02666 c 2.67777,9.86353 5.12481,19.60373 4.87891,29.4137 0,0 0,0 0,0 -0.1636,5.22751 -1.16335,10.50936 -4.16778,14.60827 0,1e-5 -1e-5,1e-5 -1e-5,1e-5 -2.38248,3.38807 -6.07359,6.00836 -9.79722,8.59901 -4.15486,2.8622 -8.35412,5.86774 -11.67487,9.65337 3.78563,-3.32075 8.21951,-5.66166 12.68784,-7.96105 4.05793,-2.06715 8.24807,-4.30882 11.66794,-7.89072 0,0 10e-6,0 10e-6,0 4.16756,-4.5163 6.36682,-10.53643 7.21204,-16.47323 0,0 0,0 0,0 1.61034,-10.73233 0.48803,-21.64159 -1.01438,-31.97602 z"
       id="path3095"
       inkscape:path-effect="#path-effect3097"
       inkscape:original-d="m 358.58115,659.21319 c 11.28386,54.52176 -10.04684,47.67731 -25.65721,63.28769"
       inkscape:connector-curvature="0" />
    <path
       style="color:#000000;fill:#000000;fill-opacity:1;fill-rule:nonzero;stroke:none;stroke-width:12;marker:none;visibility:visible;display:inline;overflow:visible;enable-background:accumulate"
       d="m 501.56905,656.73391 -5.45742,8.37952 c 9.74683,5.93586 19.54531,11.73088 29.31883,17.53103 7.07405,4.19994 14.10879,8.34401 20.90375,12.78834 4.67296,3.07156 9.20432,6.15256 13.05138,9.85783 2.60666,2.55461 4.91509,5.32661 5.96798,8.49414 1.0525,2.89636 0.97822,6.28518 0.32002,9.59554 0,0 0,0 0,10e-6 -0.93755,4.60752 -2.90669,9.09591 -5.01774,13.57081 -3.06101,6.45904 -6.53221,12.76656 -9.98515,19.09899 -4.77138,8.74923 -9.56129,17.49594 -14.19987,26.3175 5.16534,-8.52382 10.47184,-16.95504 15.76641,-25.40043 3.82913,-6.1068 7.69333,-12.2198 11.20308,-18.58993 2.42703,-4.38557 4.76456,-8.98155 6.15661,-14.05261 10e-6,0 10e-6,0 10e-6,0 1.04166,-3.75193 1.33559,-7.8817 0.24468,-11.92589 -1.24068,-4.25928 -3.76287,-7.88814 -6.59284,-10.88881 -4.03749,-4.35135 -8.66271,-7.96587 -13.23077,-11.35019 -6.67481,-4.96579 -13.54052,-9.59718 -20.33555,-14.20822 -9.41034,-6.38731 -18.81538,-12.74995 -28.11341,-19.21763 z"
       id="path3099"
       inkscape:path-effect="#path-effect3101"
       inkscape:original-d="m 498.84034,660.92367 c 87.92088,57.26115 82.88831,41.37246 37.63049,121.44395"
       inkscape:connector-curvature="0" />
    <path
       style="color:#000000;fill:#000000;fill-opacity:1;fill-rule:nonzero;stroke:none;stroke-width:12;marker:none;visibility:visible;display:inline;overflow:visible;enable-background:accumulate"
       d="m 474.38277,659.01316 -9.2412,3.82102 c 5.68266,11.93845 10.75504,24.0872 12.62878,36.91152 0,0 0,0 0,0 1.04025,7.24845 1.00565,14.74673 -1.5399,21.5629 0,0 0,1e-5 0,1e-5 -1.71453,4.70249 -4.74786,8.99529 -8.07456,13.04224 -1.3952,1.6922 -2.84456,3.37835 -4.14189,5.18136 -1.15934,1.60828 -2.19325,3.33756 -2.80421,5.20488 0.81114,-1.78947 2.00533,-3.35266 3.30615,-4.80086 1.4607,-1.62354 3.06117,-3.11595 4.64538,-4.65965 3.8052,-3.69892 7.41393,-7.78146 9.90703,-12.73082 0,0 0,0 0,0 3.5462,-7.15766 4.61809,-15.37409 4.27827,-23.30697 0,0 0,0 0,0 -0.55226,-13.86277 -4.40728,-27.40031 -8.96385,-40.22563 z"
       id="path3103"
       inkscape:path-effect="#path-effect3105"
       inkscape:original-d="m 469.76217,660.92367 c 26.92033,65.1073 -3.03692,69.63092 -8.55238,83.81342"
       inkscape:connector-curvature="0" />
    <path
       style="color:#000000;fill:#000000;fill-opacity:1;fill-rule:nonzero;stroke:none;stroke-width:12;marker:none;visibility:visible;display:inline;overflow:visible;enable-background:accumulate"
       d="m 318.17489,633.8194 0.76938,9.97036 c 29.47391,-2.57124 58.93696,-5.32491 88.37225,-8.37339 24.43986,-2.53101 48.8744,-5.24901 73.26113,-8.40601 10e-6,0 10e-6,0 10e-6,0 17.70768,-2.2914 35.44724,-4.74111 53.06869,-8.03526 5.80888,-1.08498 11.64361,-2.26361 17.4322,-3.77096 2.06615,-0.53755 4.14785,-1.1263 6.2203,-1.82625 1.48573,-0.49726 3.02707,-1.07473 4.55648,-1.84613 0.91818,-0.40705 2.04257,-1.09018 3.10663,-2.25763 0.38397,-0.39894 0.72497,-1.02898 0.95323,-1.8837 0.15752,-0.83599 0.062,-1.63228 -0.26828,-2.33884 -0.39729,-0.76312 -0.84361,-1.29242 -1.26919,-1.60582 -0.56798,-0.46216 -1.1186,-0.79535 -1.61607,-1.03483 -1.50305,-0.74109 -2.99557,-1.19598 -4.38245,-1.54807 -10e-6,0 -2e-5,0 -3e-5,-1e-5 -2.12924,-0.55752 -4.25521,-0.96258 -6.35102,-1.3091 -2.8582,-0.47446 -5.7158,-0.84599 -8.56249,-1.16994 0,0 -10e-6,0 -2e-5,0 -8.08707,-0.92064 -16.18275,-1.49237 -24.25874,-1.96508 -26.53307,-1.55429 -53.08352,-2.02308 -79.6096,-2.3261 -41.83585,-0.47841 -83.66563,-0.28284 -125.48863,0.13594 41.823,0.41878 83.64384,1.06085 125.43475,2.37614 26.50427,0.83442 52.99735,1.8327 79.38234,3.91039 8.03238,0.63287 16.03845,1.35858 23.97492,2.42484 1e-5,0 2e-5,0 3e-5,0 2.79199,0.37525 5.5635,0.79145 8.30091,1.30323 2.0169,0.37836 3.99134,0.79245 5.89086,1.33441 10e-6,0 10e-6,0 2e-5,0 1.27705,0.37493 2.44521,0.73396 3.3985,1.25443 0.30354,0.17192 0.53341,0.30172 0.65177,0.4225 0.0669,0.10492 0.0717,0.0627 -0.0564,-0.113 -0.11291,-0.23228 -0.13791,-0.48591 -0.0904,-0.81193 0,-1e-5 1e-5,-1e-5 1e-5,-2e-5 0.10262,-0.27216 0.11804,-0.37946 0.11628,-0.32412 -0.16058,0.27485 -0.75559,0.51816 -1.53148,0.95379 -1.18481,0.5787 -2.50505,1.03248 -3.90014,1.4789 -1.91653,0.60673 -3.88832,1.11995 -5.89422,1.60104 -5.62381,1.34752 -11.35244,2.38288 -17.12813,3.34504 -17.50526,2.91316 -35.1682,4.99008 -52.88026,6.92464 0,0 -1e-5,10e-6 -2e-5,10e-6 -24.36462,2.65957 -48.78268,4.88132 -73.22688,6.91933 -29.43574,2.45398 -58.89788,4.61332 -88.37632,6.5912 z"
       id="path3107"
       inkscape:path-effect="#path-effect3109"
       inkscape:original-d="m 318.55958,638.80458 c 251.27025,-19.38955 395.96942,-44.576 -4.45091,-44.576"
       inkscape:connector-curvature="0" />
    <path
       style="color:#000000;fill:#000000;fill-opacity:1;fill-rule:nonzero;stroke:none;stroke-width:12;marker:none;visibility:visible;display:inline;overflow:visible;enable-background:accumulate"
       d="m 190.26474,642.28763 1.37912,9.90444 c 3.46637,-0.67557 7.10827,-1.05439 10.84906,-1.37504 4.74717,-0.40287 9.54249,-0.64803 14.36617,-0.82668 0,0 0,0 1e-5,0 10.98131,-0.40611 22.01566,-0.45635 33.06738,-0.37483 0,0 1e-5,0 1e-5,0 9.76755,0.0722 19.54166,0.26202 29.31802,0.54386 3.24697,0.0936 6.49381,0.19738 9.74073,0.31615 1.53356,0.0562 3.06561,0.10696 4.5977,0.18528 -1.51726,-0.22662 -3.03978,-0.42624 -4.55967,-0.63078 -3.22142,-0.43346 -6.44545,-0.85215 -9.6709,-1.26075 -9.71151,-1.23028 -19.43975,-2.36994 -29.18793,-3.39318 -11.02499,-1.15766 -22.08685,-2.18511 -33.21541,-2.85735 0,0 0,0 0,0 -4.88771,-0.29555 -9.80751,-0.5217 -14.76651,-0.58543 -3.86856,-0.0548 -7.84291,-0.0202 -11.91778,0.35431 z"
       id="path3115"
       inkscape:path-effect="#path-effect3117"
       inkscape:original-d="m 190.9543,647.23985 c 24.88079,-3.46446 98.4861,3.0067 102.62864,3.42096"
       inkscape:connector-curvature="0" />
    <path
       sodipodi:type="arc"
       style="color:#000000;fill:#ffffff;fill-opacity:1;fill-rule:nonzero;stroke:none;stroke-width:12;marker:none;visibility:visible;display:inline;overflow:visible;enable-background:accumulate"
       id="path3119"
       sodipodi:cx="-4470"
       sodipodi:cy="-1014.7807"
       sodipodi:rx="12.857142"
       sodipodi:ry="15.714286"
       d="m -4457.1429,-1014.7807 c 0,8.6788 -5.7563,15.71429 -12.8571,15.71429 -7.1008,0 -12.8571,-7.03549 -12.8571,-15.71429 0,-8.6788 5.7563,-15.7143 12.8571,-15.7143 7.1008,0 12.8571,7.0355 12.8571,15.7143 z"
       transform="matrix(0.59866732,0,0,0.59866732,2855.366,1197.4549)" />
    <path
       transform="matrix(0.59866732,0,0,0.59866732,2957.1394,1197.4549)"
       d="m -4457.1429,-1014.7807 c 0,8.6788 -5.7563,15.71429 -12.8571,15.71429 -7.1008,0 -12.8571,-7.03549 -12.8571,-15.71429 0,-8.6788 5.7563,-15.7143 12.8571,-15.7143 7.1008,0 12.8571,7.0355 12.8571,15.7143 z"
       sodipodi:ry="15.714286"
       sodipodi:rx="12.857142"
       sodipodi:cy="-1014.7807"
       sodipodi:cx="-4470"
       id="path3121"
       style="color:#000000;fill:#ffffff;fill-opacity:1;fill-rule:nonzero;stroke:none;stroke-width:12;marker:none;visibility:visible;display:inline;overflow:visible;enable-background:accumulate"
       sodipodi:type="arc" />
  </g>
</svg>
